<svg width="71" height="91" viewBox="0 0 71 91" fill="none" xmlns="http://www.w3.org/2000/svg">
<g opacity="0.2">
<path opacity="0.83" d="M0 21.9954V67.3983C0 70.6491 3.25292 72.6909 5.97216 71.2133L43.4062 50.3655C46.2016 48.8073 46.3287 44.6431 43.6603 42.8969L6.22629 18.3417C3.48164 16.5686 0 18.6372 0 21.9954Z" fill="#74CEB7"/>
<path opacity="0.83" d="M19.2888 35.3478V86.1776C19.2888 89.8045 22.9229 92.1149 25.9726 90.4492L67.8793 67.103C71.0052 65.3567 71.1576 60.709 68.1589 58.7478L26.2521 31.2374C23.2025 29.2493 19.2888 31.5598 19.2888 35.3478Z" fill="#A6A6A6"/>
<path opacity="0.83" d="M19.2888 4.82845V55.6582C19.2888 59.2851 22.9229 61.5955 25.9726 59.9299L67.8793 36.5836C71.0052 34.8374 71.1576 30.1896 68.1589 28.2284L26.2521 0.744871C23.2025 -1.27005 19.2888 1.04039 19.2888 4.82845Z" fill="#FF5757"/>
</g>
</svg>
