<svg width="247" height="91" viewBox="0 0 247 91" fill="none" xmlns="http://www.w3.org/2000/svg">
<path d="M84.3325 47.918H81.0651V38.6603H76.3455V35.7559H89.074V38.6603H84.3325V47.918Z" fill="#545454"/>
<path d="M103.502 47.918H100.343L97.9106 44.106C97.2571 44.106 96.6278 44.1012 96.0227 44.0915C95.4176 44.077 94.8246 44.0213 94.2438 43.9245V47.918H90.9763V35.7559C92.0171 35.6349 93.1086 35.5453 94.251 35.4872C95.3983 35.4243 96.5213 35.3928 97.6201 35.3928H98.1284C99.1449 35.3928 99.9872 35.4993 100.655 35.7123C101.318 35.9253 101.851 36.2133 102.253 36.5764C102.65 36.9394 102.928 37.363 103.088 37.847C103.243 38.3311 103.32 38.8442 103.32 39.3864V40.1125C103.32 40.8773 103.17 41.5719 102.87 42.1964C102.565 42.816 102.025 43.2952 101.251 43.634L103.502 47.1919V47.918ZM97.6564 38.2972C97.2353 38.2972 96.7125 38.3093 96.0881 38.3335C95.4636 38.3577 94.8488 38.4013 94.2438 38.4642V41.0419C94.815 41.1145 95.3547 41.1605 95.863 41.1798C96.3712 41.1943 96.7827 41.2016 97.0973 41.2016C97.8234 41.2016 98.3849 41.1701 98.7819 41.1072C99.1836 41.0394 99.4765 40.9378 99.6605 40.8023C99.8492 40.6716 99.963 40.5021 100.002 40.294C100.036 40.0907 100.053 39.8438 100.053 39.5534C100.053 39.3936 100.04 39.2387 100.016 39.0887C99.992 38.9386 99.9049 38.8031 99.7548 38.682C99.6048 38.561 99.3652 38.4666 99.036 38.3989C98.7117 38.3311 98.2518 38.2972 97.6564 38.2972Z" fill="#545454"/>
<path d="M108.185 47.918H105.244V47.1919L110.654 35.7559H113.921L119.33 47.1919V47.918H116.39L115.337 45.5582H109.223L108.185 47.918ZM110.436 42.8353H114.139L112.287 38.682L110.436 42.8353Z" fill="#545454"/>
<path d="M120.441 42.3125V41.3686C120.441 40.5457 120.543 39.7712 120.746 39.0451C120.955 38.319 121.305 37.6873 121.799 37.15C122.298 36.6078 122.971 36.1794 123.818 35.8648C124.665 35.5501 125.73 35.3928 127.013 35.3928H127.666C128.489 35.3928 129.288 35.4461 130.062 35.5526C130.837 35.6542 131.599 35.8019 132.349 35.9955V38.9507C131.923 38.8297 131.495 38.728 131.064 38.6457C130.638 38.5586 130.215 38.4884 129.794 38.4352C129.377 38.3819 128.978 38.3432 128.595 38.319C128.218 38.2948 127.877 38.2827 127.572 38.2827C126.628 38.2827 125.899 38.3698 125.386 38.5441C124.873 38.7184 124.498 38.9628 124.261 39.2774C124.023 39.5921 123.883 39.9672 123.84 40.4029C123.801 40.8386 123.781 41.3178 123.781 41.8406C123.781 42.3585 123.801 42.8353 123.84 43.271C123.883 43.7066 124.023 44.0866 124.261 44.411C124.498 44.7304 124.873 44.9773 125.386 45.1516C125.899 45.3258 126.628 45.413 127.572 45.413C127.877 45.413 128.218 45.4009 128.595 45.3767C128.978 45.3525 129.377 45.3137 129.794 45.2605C130.215 45.2073 130.638 45.1346 131.064 45.0427C131.495 44.9507 131.923 44.8442 132.349 44.7232V47.7002C131.599 47.8841 130.837 48.0269 130.062 48.1286C129.288 48.2302 128.489 48.2811 127.666 48.2811H127.013C125.73 48.2811 124.665 48.1237 123.818 47.8091C122.971 47.4945 122.298 47.0685 121.799 46.5312C121.305 45.9939 120.955 45.3622 120.746 44.6361C120.543 43.91 120.441 43.1354 120.441 42.3125Z" fill="#545454"/>
<path d="M134.346 35.7559H137.614V40.4755H139.698L143.655 35.7559H146.85V36.482L142.37 41.8406L146.85 47.1919V47.918H143.655L139.843 43.3799H137.614V47.918H134.346V35.7559Z" fill="#545454"/>
<path d="M158.721 40.6423H161.989C161.989 41.4749 161.856 42.2591 161.589 42.9949C161.323 43.7258 160.96 44.3938 160.5 44.9989C161.168 45.2168 161.773 45.3257 162.315 45.3257C162.499 45.3257 162.688 45.3136 162.882 45.2894C163.075 45.2652 163.322 45.2216 163.622 45.1587V48.0994C163.332 48.1865 163.056 48.2397 162.795 48.2591C162.538 48.2736 162.228 48.2809 161.865 48.2809C161.802 48.2809 161.662 48.2736 161.444 48.2591C161.226 48.2397 160.946 48.1962 160.602 48.1284C160.258 48.0606 159.859 47.959 159.404 47.8234C158.949 47.6831 158.455 47.4919 157.923 47.2498C157.332 47.5887 156.715 47.8452 156.071 48.0195C155.432 48.1938 154.803 48.2809 154.183 48.2809H153.711C152.67 48.2809 151.802 48.1913 151.104 48.0122C150.412 47.8283 149.856 47.579 149.434 47.2644C149.018 46.9497 148.725 46.5915 148.556 46.1897C148.386 45.7831 148.302 45.3499 148.302 44.89V44.6504C148.302 43.9485 148.553 43.2781 149.057 42.6391C149.56 41.9953 150.24 41.4919 151.097 41.1288C150.918 40.7416 150.8 40.4124 150.741 40.1413C150.688 39.8703 150.662 39.6863 150.662 39.5895V39.3499C150.662 38.8319 150.741 38.3333 150.901 37.8541C151.056 37.3749 151.322 36.9538 151.7 36.5907C152.073 36.2277 152.571 35.9421 153.196 35.7339C153.82 35.5209 154.597 35.4144 155.526 35.4144H156.18C156.896 35.4144 157.584 35.4653 158.242 35.5669C158.9 35.6686 159.551 35.8162 160.195 36.0098V39.0086C159.43 38.8005 158.673 38.6359 157.923 38.5149C157.172 38.3939 156.49 38.3333 155.875 38.3333C155.415 38.3333 155.054 38.3648 154.793 38.4277C154.532 38.4858 154.338 38.5609 154.212 38.6528C154.086 38.7448 154.006 38.8368 153.973 38.9287C153.944 39.0159 153.929 39.0909 153.929 39.1538C153.929 39.5024 154.142 40.0203 154.568 40.7077C154.989 41.3902 155.72 42.1357 156.761 42.9441C157.114 43.2248 157.484 43.4862 157.872 43.7283C158.138 43.341 158.346 42.8932 158.496 42.385C158.646 41.8767 158.721 41.2958 158.721 40.6423ZM154.619 45.2168C154.125 44.8295 153.689 44.4568 153.312 44.0986C152.939 43.7404 152.612 43.3918 152.332 43.053C152.031 43.3337 151.828 43.5879 151.722 43.8154C151.62 44.0477 151.569 44.2849 151.569 44.527C151.569 44.6335 151.584 44.7545 151.613 44.89C151.647 45.0207 151.731 45.1514 151.867 45.2821C152.007 45.408 152.213 45.512 152.484 45.5943C152.76 45.6815 153.14 45.725 153.624 45.725C154.118 45.725 154.602 45.6694 155.076 45.558C154.907 45.4515 154.754 45.3378 154.619 45.2168Z" fill="#545454"/>
<path d="M165.619 42.3125V41.3686C165.619 40.5457 165.723 39.7712 165.931 39.0451C166.135 38.319 166.486 37.6873 166.984 37.15C167.478 36.6078 168.148 36.1794 168.995 35.8648C169.843 35.5501 170.908 35.3928 172.19 35.3928H172.844C173.667 35.3928 174.465 35.4461 175.24 35.5526C176.014 35.6542 176.777 35.8019 177.527 35.9955V38.9507C177.106 38.8297 176.68 38.728 176.249 38.6457C175.818 38.5586 175.395 38.4884 174.979 38.4352C174.562 38.3819 174.163 38.3432 173.78 38.319C173.398 38.2948 173.057 38.2827 172.757 38.2827C171.813 38.2827 171.082 38.3698 170.564 38.5441C170.051 38.7184 169.676 38.9628 169.438 39.2774C169.206 39.5921 169.068 39.9672 169.025 40.4029C168.981 40.8386 168.959 41.3178 168.959 41.8406C168.959 42.3585 168.981 42.8353 169.025 43.271C169.068 43.7066 169.206 44.0866 169.438 44.411C169.676 44.7304 170.051 44.9773 170.564 45.1516C171.082 45.3258 171.813 45.413 172.757 45.413C173.057 45.413 173.398 45.4009 173.78 45.3767C174.163 45.3525 174.562 45.3137 174.979 45.2605C175.395 45.2073 175.818 45.1346 176.249 45.0427C176.68 44.9507 177.106 44.8442 177.527 44.7232V47.7002C176.777 47.8841 176.014 48.0269 175.24 48.1286C174.465 48.2302 173.667 48.2811 172.844 48.2811H172.19C170.908 48.2811 169.843 48.1237 168.995 47.8091C168.148 47.4945 167.478 47.0685 166.984 46.5312C166.486 45.9939 166.135 45.3622 165.931 44.6361C165.723 43.91 165.619 43.1354 165.619 42.3125Z" fill="#545454"/>
<path d="M179.524 35.7559H182.791V40.4755H189.145V35.7559H192.412V47.918H189.145V43.3799H182.791V47.918H179.524V35.7559Z" fill="#545454"/>
<path d="M206.593 35.7559V38.6603H198.221V40.4755H204.778V43.3799H198.221V45.0136H206.593V47.918H194.954V35.7559H206.593Z" fill="#545454"/>
<path d="M208.568 42.3125V41.3686C208.568 40.5457 208.672 39.7712 208.88 39.0451C209.083 38.319 209.434 37.6873 209.933 37.15C210.427 36.6078 211.097 36.1794 211.944 35.8648C212.791 35.5501 213.856 35.3928 215.139 35.3928H215.793C216.615 35.3928 217.414 35.4461 218.189 35.5526C218.963 35.6542 219.726 35.8019 220.476 35.9955V38.9507C220.055 38.8297 219.629 38.728 219.198 38.6457C218.767 38.5586 218.344 38.4884 217.927 38.4352C217.511 38.3819 217.112 38.3432 216.729 38.319C216.347 38.2948 216.006 38.2827 215.705 38.2827C214.761 38.2827 214.031 38.3698 213.513 38.5441C212.999 38.7184 212.624 38.9628 212.387 39.2774C212.155 39.5921 212.017 39.9672 211.973 40.4029C211.93 40.8386 211.908 41.3178 211.908 41.8406C211.908 42.3585 211.93 42.8353 211.973 43.271C212.017 43.7066 212.155 44.0866 212.387 44.411C212.624 44.7304 212.999 44.9773 213.513 45.1516C214.031 45.3258 214.761 45.413 215.705 45.413C216.006 45.413 216.347 45.4009 216.729 45.3767C217.112 45.3525 217.511 45.3137 217.927 45.2605C218.344 45.2073 218.767 45.1346 219.198 45.0427C219.629 44.9507 220.055 44.8442 220.476 44.7232V47.7002C219.726 47.8841 218.963 48.0269 218.189 48.1286C217.414 48.2302 216.615 48.2811 215.793 48.2811H215.139C213.856 48.2811 212.791 48.1237 211.944 47.8091C211.097 47.4945 210.427 47.0685 209.933 46.5312C209.434 45.9939 209.083 45.3622 208.88 44.6361C208.672 43.91 208.568 43.1354 208.568 42.3125Z" fill="#545454"/>
<path d="M222.473 35.7559H225.74V40.4755H227.831L231.788 35.7559H234.983V36.482L230.496 41.8406L234.983 47.1919V47.918H231.788L227.976 43.3799H225.74V47.918H222.473V35.7559Z" fill="#545454"/>
<path opacity="0.83" d="M0 21.9954V67.3983C0 70.6491 3.25292 72.6909 5.97216 71.2133L43.4062 50.3655C46.2016 48.8073 46.3287 44.6431 43.6603 42.8969L6.22629 18.3417C3.48164 16.5686 0 18.6372 0 21.9954Z" fill="#74CEB7"/>
<path opacity="0.83" d="M19.2888 35.3478V86.1776C19.2888 89.8045 22.9229 92.1149 25.9726 90.4492L67.8793 67.103C71.0052 65.3567 71.1576 60.709 68.1589 58.7478L26.2521 31.2374C23.2025 29.2493 19.2888 31.5598 19.2888 35.3478Z" fill="#A6A6A6"/>
<path opacity="0.83" d="M19.2888 4.82845V55.6582C19.2888 59.2851 22.9229 61.5955 25.9726 59.9299L67.8793 36.5836C71.0052 34.8374 71.1576 30.1896 68.1589 28.2284L26.2521 0.744871C23.2025 -1.27005 19.2888 1.04039 19.2888 4.82845Z" fill="#FF5757"/>
<path d="M79.0684 54.27H80.7166V56.6443H81.7694L83.7662 54.27H85.3709V54.633L83.1127 57.3341L85.3709 60.0279V60.3983H83.7662L81.8421 58.111H80.7166V60.3983H79.0684V54.27Z" fill="#545454"/>
<path d="M91.6881 57.6537V60.3984H91.3178L90.824 60.1152C90.5142 60.2749 90.1923 60.3911 89.8583 60.4637C89.5195 60.5412 89.1395 60.5799 88.7183 60.5799C88.2246 60.5799 87.8156 60.5387 87.4912 60.4565C87.1669 60.3742 86.9055 60.2604 86.7071 60.1152C86.5134 59.9748 86.3779 59.8102 86.3004 59.6214C86.2181 59.4375 86.177 59.2439 86.177 59.0406V58.9534C86.177 58.7646 86.2181 58.5831 86.3004 58.4089C86.3827 58.2394 86.5231 58.0918 86.7216 57.9659C86.92 57.8352 87.179 57.7336 87.4985 57.661C87.818 57.5884 88.2173 57.5521 88.6966 57.5521C89.292 57.5521 89.8002 57.6102 90.2214 57.7263C90.2165 57.6053 90.1996 57.4964 90.1705 57.3996C90.1415 57.3076 90.0834 57.2277 89.9963 57.16C89.9043 57.097 89.7688 57.0486 89.5897 57.0148C89.4057 56.9809 89.1661 56.9639 88.8708 56.9639C88.7062 56.9639 88.5296 56.9712 88.3408 56.9857C88.1471 56.9954 87.9559 57.0123 87.7672 57.0365C87.5735 57.0559 87.3847 57.0849 87.2008 57.1237C87.012 57.1576 86.8378 57.1963 86.678 57.2398V55.8675C86.8378 55.8336 87.012 55.8022 87.2008 55.7731C87.3847 55.7441 87.5759 55.7199 87.7744 55.7005C87.9729 55.6763 88.1689 55.6618 88.3626 55.6569C88.5513 55.6473 88.7353 55.6424 88.9144 55.6424C89.4275 55.6424 89.8583 55.686 90.2068 55.7731C90.5602 55.8603 90.8458 55.9885 91.0636 56.158C91.2815 56.3225 91.4412 56.5307 91.5429 56.7824C91.6397 57.0341 91.6881 57.3246 91.6881 57.6537ZM88.8781 59.4399C89.3573 59.4399 89.8051 59.3746 90.2214 59.2439V58.8155C90.0132 58.7574 89.793 58.7162 89.5606 58.692C89.3283 58.663 89.0693 58.6485 88.7837 58.6485C88.5126 58.6485 88.2996 58.6606 88.1447 58.6848C87.9947 58.709 87.8809 58.7404 87.8035 58.7792C87.7309 58.8227 87.6873 58.8687 87.6728 58.9171C87.6534 58.9655 87.6437 59.0115 87.6437 59.0551C87.6437 59.1083 87.6534 59.1567 87.6728 59.2003C87.6873 59.2487 87.7357 59.2899 87.818 59.3237C87.9003 59.3625 88.0237 59.3915 88.1883 59.4109C88.3529 59.4302 88.5828 59.4399 88.8781 59.4399Z" fill="#545454"/>
<path d="M94.1714 55.8239V56.9784C94.1714 57.0995 94.1786 57.2108 94.1932 57.3124C94.2028 57.4093 94.2416 57.494 94.3093 57.5666C94.3771 57.644 94.486 57.7021 94.6361 57.7408C94.7861 57.7796 94.9991 57.7989 95.275 57.7989C95.5364 57.7989 95.7833 57.7892 96.0157 57.7699C96.248 57.7505 96.4949 57.7045 96.7563 57.6319V55.8239H98.2157V60.3984H96.7563V58.9389C96.5046 59.026 96.2529 59.0769 96.0011 59.0914C95.7543 59.1059 95.4953 59.1132 95.2242 59.1132H94.9919C94.5465 59.1132 94.1762 59.0623 93.8809 58.9607C93.5905 58.859 93.3581 58.7162 93.1839 58.5323C93.0096 58.3532 92.8862 58.145 92.8136 57.9078C92.7458 57.6707 92.7119 57.4141 92.7119 57.1382V55.8239H94.1714Z" fill="#545454"/>
<path d="M102.151 60.5799H101.977C101.464 60.5799 101.04 60.5194 100.706 60.3984C100.372 60.2822 100.103 60.12 99.9001 59.9119C99.7016 59.7037 99.5613 59.4617 99.479 59.1858C99.4015 58.9099 99.3628 58.6122 99.3628 58.2927V57.9296C99.3628 57.6102 99.4015 57.3125 99.479 57.0365C99.5613 56.7558 99.7016 56.5137 99.9001 56.3104C100.103 56.1023 100.372 55.9377 100.706 55.8167C101.04 55.7005 101.464 55.6424 101.977 55.6424H102.231C102.754 55.6424 103.18 55.6787 103.509 55.7513C103.838 55.8288 104.092 55.9353 104.271 56.0708C104.455 56.2064 104.581 56.3613 104.649 56.5355C104.717 56.7146 104.75 56.9034 104.75 57.1019V57.1963C104.75 57.3802 104.729 57.5545 104.685 57.7191C104.637 57.8836 104.528 58.0289 104.358 58.1547C104.184 58.2854 103.932 58.3871 103.603 58.4597C103.269 58.5323 102.817 58.5686 102.245 58.5686C101.969 58.5686 101.715 58.5565 101.483 58.5323C101.251 58.5081 101.03 58.4645 100.822 58.4016C100.832 58.5323 100.854 58.6509 100.888 58.7574C100.926 58.8639 100.997 58.9534 101.098 59.026C101.195 59.0987 101.335 59.1543 101.519 59.193C101.703 59.2318 101.948 59.2511 102.253 59.2511C102.398 59.2511 102.56 59.2463 102.739 59.2366C102.923 59.2221 103.109 59.2051 103.298 59.1858C103.492 59.1616 103.681 59.135 103.865 59.1059C104.053 59.072 104.228 59.0309 104.387 58.9825V60.3548C104.228 60.3887 104.053 60.4202 103.865 60.4492C103.681 60.4734 103.489 60.4976 103.291 60.5218C103.093 60.5412 102.896 60.5557 102.703 60.5654C102.504 60.5751 102.32 60.5799 102.151 60.5799ZM102.245 56.7824C101.999 56.7824 101.793 56.7969 101.628 56.826C101.464 56.8502 101.331 56.8913 101.229 56.9494C101.122 57.0026 101.043 57.0704 100.989 57.1527C100.936 57.2302 100.897 57.3197 100.873 57.4214C101.047 57.4698 101.236 57.5061 101.439 57.5303C101.648 57.5496 101.885 57.5593 102.151 57.5593C102.422 57.5593 102.633 57.5496 102.783 57.5303C102.938 57.5061 103.051 57.477 103.124 57.4431C103.197 57.4141 103.243 57.3778 103.262 57.3342C103.276 57.2955 103.284 57.2544 103.284 57.2108C103.284 57.1721 103.276 57.1261 103.262 57.0728C103.247 57.0196 103.206 56.9712 103.139 56.9276C103.066 56.8841 102.959 56.8502 102.819 56.826C102.679 56.7969 102.487 56.7824 102.245 56.7824Z" fill="#545454"/>
<path d="M105.847 58.2927V57.9296C105.847 57.6102 105.888 57.3125 105.97 57.0365C106.048 56.7558 106.186 56.5137 106.384 56.3104C106.588 56.1023 106.856 55.9377 107.19 55.8167C107.529 55.7005 107.955 55.6424 108.468 55.6424H108.722C109.051 55.6424 109.373 55.6618 109.688 55.7005C110.003 55.7392 110.308 55.7949 110.603 55.8675V57.2326C110.264 57.1358 109.923 57.068 109.579 57.0293C109.24 56.9857 108.943 56.9639 108.686 56.9639C108.342 56.9639 108.078 56.993 107.895 57.0511C107.706 57.1091 107.57 57.189 107.488 57.2907C107.401 57.3923 107.35 57.5133 107.335 57.6537C107.321 57.7941 107.314 57.9466 107.314 58.1112C107.314 58.2757 107.321 58.4282 107.335 58.5686C107.35 58.709 107.401 58.83 107.488 58.9317C107.57 59.0285 107.706 59.1059 107.895 59.164C108.078 59.2221 108.342 59.2511 108.686 59.2511C108.943 59.2511 109.24 59.2318 109.579 59.193C109.923 59.1543 110.264 59.0866 110.603 58.9897V60.3548C110.308 60.4274 110.003 60.4831 109.688 60.5218C109.373 60.5605 109.051 60.5799 108.722 60.5799H108.468C107.955 60.5799 107.529 60.5194 107.19 60.3984C106.856 60.2822 106.588 60.12 106.384 59.9119C106.186 59.7037 106.048 59.4617 105.97 59.1858C105.888 58.9099 105.847 58.6122 105.847 58.2927Z" fill="#545454"/>
<path d="M114.734 60.3984H113.268V57.1527H111.532V55.8239H116.477V57.1527H114.734V60.3984Z" fill="#545454"/>
<path d="M117.254 60.3982V55.8238C117.675 55.7754 118.116 55.7391 118.575 55.7149C119.04 55.6907 119.495 55.6786 119.94 55.6786H120.137C120.548 55.6786 120.887 55.7101 121.153 55.773C121.424 55.8359 121.64 55.923 121.799 56.0344C121.959 56.1409 122.073 56.2691 122.141 56.4192C122.203 56.5644 122.235 56.7193 122.235 56.8839V57.0291C122.235 57.2615 122.17 57.4696 122.039 57.6536C121.908 57.8424 121.671 57.9827 121.327 58.0747C121.724 58.1715 121.998 58.3216 122.148 58.5249C122.303 58.7234 122.38 58.9436 122.38 59.1856V59.3381C122.38 59.5027 122.344 59.6576 122.271 59.8028C122.203 59.948 122.085 60.0763 121.915 60.1877C121.751 60.299 121.523 60.3861 121.233 60.4491C120.942 60.512 120.577 60.5434 120.137 60.5434H119.94C119.495 60.5434 119.04 60.5313 118.575 60.5071C118.116 60.4829 117.675 60.4466 117.254 60.3982ZM119.875 58.6048H118.721V59.3091C118.938 59.3333 119.164 59.3502 119.396 59.3599C119.623 59.3696 119.819 59.3744 119.984 59.3744C120.207 59.3744 120.383 59.3623 120.514 59.3381C120.64 59.3188 120.734 59.2921 120.797 59.2583C120.86 59.2244 120.899 59.1856 120.913 59.1421C120.928 59.0985 120.935 59.0525 120.935 59.0041C120.935 58.9509 120.928 58.9 120.913 58.8516C120.904 58.8032 120.867 58.7597 120.805 58.7209C120.737 58.6871 120.63 58.658 120.485 58.6338C120.34 58.6144 120.137 58.6048 119.875 58.6048ZM119.962 56.8476C119.807 56.8476 119.614 56.85 119.381 56.8549C119.154 56.8597 118.934 56.8791 118.721 56.913V57.6173H119.875C120.098 57.6173 120.272 57.6052 120.398 57.581C120.524 57.5616 120.616 57.5326 120.674 57.4938C120.732 57.4599 120.766 57.4188 120.775 57.3704C120.785 57.322 120.79 57.2687 120.79 57.2107C120.79 57.1622 120.783 57.1163 120.768 57.0727C120.759 57.034 120.725 56.9977 120.667 56.9638C120.613 56.9299 120.531 56.9009 120.42 56.8767C120.313 56.8573 120.161 56.8476 119.962 56.8476Z" fill="#545454"/>
<path d="M123.477 58.2927V57.9296C123.477 57.6102 123.518 57.3125 123.6 57.0365C123.677 56.7558 123.818 56.5137 124.021 56.3104C124.22 56.1023 124.486 55.9377 124.82 55.8167C125.159 55.7005 125.585 55.6424 126.098 55.6424H126.352C126.865 55.6424 127.289 55.7005 127.623 55.8167C127.957 55.9377 128.225 56.1023 128.429 56.3104C128.627 56.5137 128.767 56.7558 128.85 57.0365C128.927 57.3125 128.966 57.6102 128.966 57.9296V58.2927C128.966 58.6122 128.927 58.9099 128.85 59.1858C128.767 59.4617 128.627 59.7037 128.429 59.9119C128.225 60.12 127.957 60.2822 127.623 60.3984C127.289 60.5194 126.865 60.5799 126.352 60.5799H126.098C125.585 60.5799 125.159 60.5194 124.82 60.3984C124.486 60.2822 124.22 60.12 124.021 59.9119C123.818 59.7037 123.677 59.4617 123.6 59.1858C123.518 58.9099 123.477 58.6122 123.477 58.2927ZM124.943 58.1112C124.943 58.2564 124.948 58.3992 124.958 58.5396C124.972 58.6799 125.021 58.801 125.103 58.9026C125.185 59.0091 125.311 59.0938 125.481 59.1567C125.65 59.2197 125.897 59.2511 126.221 59.2511C126.541 59.2511 126.788 59.2197 126.962 59.1567C127.136 59.0938 127.264 59.0091 127.347 58.9026C127.429 58.801 127.475 58.6799 127.485 58.5396C127.499 58.3992 127.506 58.2564 127.506 58.1112C127.506 57.9659 127.499 57.8231 127.485 57.6828C127.475 57.5424 127.429 57.4189 127.347 57.3125C127.264 57.2108 127.136 57.1285 126.962 57.0656C126.788 56.9978 126.541 56.9639 126.221 56.9639C125.897 56.9639 125.65 56.9978 125.481 57.0656C125.311 57.1285 125.185 57.2108 125.103 57.3125C125.021 57.4189 124.972 57.5424 124.958 57.6828C124.948 57.8231 124.943 57.9659 124.943 58.1112Z" fill="#545454"/>
<path d="M132.487 60.3982V55.8238C132.908 55.7754 133.349 55.7391 133.809 55.7149C134.269 55.6907 134.721 55.6786 135.167 55.6786H135.37C135.781 55.6786 136.12 55.7101 136.386 55.773C136.653 55.8359 136.868 55.923 137.033 56.0344C137.192 56.1409 137.304 56.2691 137.367 56.4192C137.434 56.5644 137.468 56.7193 137.468 56.8839V57.0291C137.468 57.2615 137.403 57.4696 137.272 57.6536C137.142 57.8424 136.904 57.9827 136.561 58.0747C136.958 58.1715 137.231 58.3216 137.381 58.5249C137.536 58.7234 137.614 58.9436 137.614 59.1856V59.3381C137.614 59.5027 137.577 59.6576 137.505 59.8028C137.437 59.948 137.318 60.0763 137.149 60.1877C136.984 60.299 136.757 60.3861 136.466 60.4491C136.176 60.512 135.81 60.5434 135.37 60.5434H135.167C134.721 60.5434 134.269 60.5313 133.809 60.5071C133.349 60.4829 132.908 60.4466 132.487 60.3982ZM135.109 58.6048H133.954V59.3091C134.172 59.3333 134.395 59.3502 134.622 59.3599C134.854 59.3696 135.053 59.3744 135.217 59.3744C135.44 59.3744 135.617 59.3623 135.747 59.3381C135.873 59.3188 135.968 59.2921 136.031 59.2583C136.089 59.2244 136.127 59.1856 136.147 59.1421C136.161 59.0985 136.169 59.0525 136.169 59.0041C136.169 58.9509 136.161 58.9 136.147 58.8516C136.137 58.8032 136.101 58.7597 136.038 58.7209C135.97 58.6871 135.864 58.658 135.718 58.6338C135.573 58.6144 135.37 58.6048 135.109 58.6048ZM135.196 56.8476C135.036 56.8476 134.842 56.85 134.615 56.8549C134.387 56.8597 134.167 56.8791 133.954 56.913V57.6173H135.109C135.331 57.6173 135.505 57.6052 135.631 57.581C135.757 57.5616 135.849 57.5326 135.907 57.4938C135.965 57.4599 135.999 57.4188 136.009 57.3704C136.019 57.322 136.023 57.2687 136.023 57.2107C136.023 57.1622 136.016 57.1163 136.002 57.0727C135.992 57.034 135.958 56.9977 135.9 56.9638C135.847 56.9299 135.764 56.9009 135.653 56.8767C135.547 56.8573 135.394 56.8476 135.196 56.8476Z" fill="#545454"/>
<path d="M146.45 60.3984H145.042L144.018 58.7864H142.551V60.3984H141.092V55.8239L142.551 55.8312V57.4359H144.018L145.042 55.8239H146.45V56.187L145.231 58.1112L146.45 60.0281V60.3984Z" fill="#545454"/>
<path d="M152.746 57.6537V60.3984H152.383L151.882 60.1152C151.572 60.2749 151.25 60.3911 150.916 60.4637C150.582 60.5412 150.204 60.5799 149.783 60.5799C149.289 60.5799 148.878 60.5387 148.549 60.4565C148.225 60.3742 147.963 60.2604 147.765 60.1152C147.571 59.9748 147.436 59.8102 147.358 59.6214C147.276 59.4375 147.235 59.2439 147.235 59.0406V58.9534C147.235 58.7646 147.276 58.5831 147.358 58.4089C147.44 58.2394 147.581 58.0918 147.779 57.9659C147.978 57.8352 148.237 57.7336 148.556 57.661C148.88 57.5884 149.28 57.5521 149.754 57.5521C150.35 57.5521 150.858 57.6102 151.279 57.7263C151.274 57.6053 151.257 57.4964 151.228 57.3996C151.204 57.3076 151.146 57.2277 151.054 57.16C150.962 57.097 150.826 57.0486 150.647 57.0148C150.468 56.9809 150.229 56.9639 149.928 56.9639C149.764 56.9639 149.587 56.9712 149.398 56.9857C149.21 56.9954 149.018 57.0123 148.825 57.0365C148.631 57.0559 148.442 57.0849 148.258 57.1237C148.07 57.1576 147.898 57.1963 147.743 57.2398V55.8675C147.898 55.8336 148.07 55.8022 148.258 55.7731C148.442 55.7441 148.634 55.7199 148.832 55.7005C149.031 55.6763 149.227 55.6618 149.42 55.6569C149.614 55.6473 149.798 55.6424 149.972 55.6424C150.485 55.6424 150.916 55.686 151.264 55.7731C151.618 55.8603 151.903 55.9885 152.121 56.158C152.344 56.3225 152.504 56.5307 152.6 56.7824C152.697 57.0341 152.746 57.3246 152.746 57.6537ZM149.936 59.4399C150.42 59.4399 150.868 59.3746 151.279 59.2439V58.8155C151.071 58.7574 150.853 58.7162 150.625 58.692C150.393 58.663 150.132 58.6485 149.841 58.6485C149.57 58.6485 149.357 58.6606 149.202 58.6848C149.052 58.709 148.941 58.7404 148.868 58.7792C148.796 58.8227 148.75 58.8687 148.73 58.9171C148.711 58.9655 148.701 59.0115 148.701 59.0551C148.701 59.1083 148.711 59.1567 148.73 59.2003C148.75 59.2487 148.801 59.2899 148.883 59.3237C148.965 59.3625 149.089 59.3915 149.253 59.4109C149.418 59.4302 149.645 59.4399 149.936 59.4399Z" fill="#545454"/>
<path d="M154.931 60.3984H153.522V60.0281L154.742 58.1112L153.522 56.187V55.8239H154.931L155.955 57.4359H156.783V55.8239L158.242 55.8312V57.4359H159.07L160.094 55.8239H161.502V56.187L160.282 58.1112L161.502 60.0281V60.3984H160.094L159.07 58.7864H158.242V60.3984H156.783V58.7864H155.955L154.931 60.3984Z" fill="#545454"/>
<path d="M161.822 59.1132H162.388C162.499 59.0357 162.574 58.9123 162.613 58.7429C162.652 58.5783 162.683 58.3725 162.708 58.1257L162.875 55.8239H167.5V59.1132H168.226V61.4948L167.311 62.0466H166.941V60.3984H163.1V61.4948L162.185 62.0466H161.822V59.1132ZM166.04 57.1382H164.196L164.138 58.0531C164.124 58.2661 164.102 58.4621 164.073 58.6412C164.039 58.8155 163.998 58.9728 163.949 59.1132H166.04V57.1382Z" fill="#545454"/>
<path d="M168.865 58.2927V57.9296C168.865 57.6102 168.904 57.3125 168.981 57.0365C169.063 56.7558 169.204 56.5137 169.402 56.3104C169.606 56.1023 169.874 55.9377 170.208 55.8167C170.547 55.7005 170.971 55.6424 171.479 55.6424H171.74C172.253 55.6424 172.677 55.7005 173.011 55.8167C173.345 55.9377 173.614 56.1023 173.817 56.3104C174.015 56.5137 174.156 56.7558 174.238 57.0365C174.316 57.3125 174.354 57.6102 174.354 57.9296V58.2927C174.354 58.6122 174.316 58.9099 174.238 59.1858C174.156 59.4617 174.015 59.7037 173.817 59.9119C173.614 60.12 173.345 60.2822 173.011 60.3984C172.677 60.5194 172.253 60.5799 171.74 60.5799H171.479C170.971 60.5799 170.547 60.5194 170.208 60.3984C169.874 60.2822 169.606 60.12 169.402 59.9119C169.204 59.7037 169.063 59.4617 168.981 59.1858C168.904 58.9099 168.865 58.6122 168.865 58.2927ZM170.332 58.1112C170.332 58.2564 170.337 58.3992 170.346 58.5396C170.361 58.6799 170.409 58.801 170.491 58.9026C170.574 59.0091 170.7 59.0938 170.869 59.1567C171.038 59.2197 171.285 59.2511 171.61 59.2511C171.929 59.2511 172.174 59.2197 172.343 59.1567C172.517 59.0938 172.646 59.0091 172.728 58.9026C172.81 58.801 172.859 58.6799 172.873 58.5396C172.883 58.3992 172.888 58.2564 172.888 58.1112C172.888 57.9659 172.883 57.8231 172.873 57.6828C172.859 57.5424 172.81 57.4189 172.728 57.3125C172.646 57.2108 172.517 57.1285 172.343 57.0656C172.174 56.9978 171.929 56.9639 171.61 56.9639C171.285 56.9639 171.038 56.9978 170.869 57.0656C170.7 57.1285 170.574 57.2108 170.491 57.3125C170.409 57.4189 170.361 57.5424 170.346 57.6828C170.337 57.8231 170.332 57.9659 170.332 58.1112Z" fill="#545454"/>
<path d="M178.885 59.3891H178.203L177.034 57.9078V60.3984H175.574V55.8239H176.888L178.544 57.857L180.199 55.8239H181.521V60.3984H180.054V57.9078L178.885 59.3891Z" fill="#545454"/>
<path d="M184.585 59.1132H185.151C185.263 59.0357 185.338 58.9123 185.376 58.7429C185.415 58.5783 185.447 58.3725 185.471 58.1257L185.638 55.8239H190.263V59.1132H190.989V61.4948L190.074 62.0466H189.704V60.3984H185.863V61.4948L184.948 62.0466H184.585V59.1132ZM188.804 57.1382H186.959L186.894 58.0531C186.884 58.2661 186.865 58.4621 186.836 58.6412C186.802 58.8155 186.761 58.9728 186.712 59.1132H188.804V57.1382Z" fill="#545454"/>
<path d="M194.416 60.5799H194.242C193.729 60.5799 193.305 60.5194 192.971 60.3984C192.637 60.2822 192.369 60.12 192.165 59.9119C191.967 59.7037 191.827 59.4617 191.744 59.1858C191.667 58.9099 191.628 58.6122 191.628 58.2927V57.9296C191.628 57.6102 191.667 57.3125 191.744 57.0365C191.827 56.7558 191.967 56.5137 192.165 56.3104C192.369 56.1023 192.637 55.9377 192.971 55.8167C193.305 55.7005 193.729 55.6424 194.242 55.6424H194.504C195.021 55.6424 195.445 55.6787 195.774 55.7513C196.103 55.8288 196.36 55.9353 196.544 56.0708C196.723 56.2064 196.846 56.3613 196.914 56.5355C196.982 56.7146 197.016 56.9034 197.016 57.1019V57.1963C197.016 57.3802 196.994 57.5545 196.95 57.7191C196.902 57.8836 196.793 58.0289 196.624 58.1547C196.454 58.2854 196.203 58.3871 195.869 58.4597C195.535 58.5323 195.082 58.5686 194.511 58.5686C194.235 58.5686 193.981 58.5565 193.748 58.5323C193.516 58.5081 193.298 58.4645 193.095 58.4016C193.1 58.5323 193.119 58.6509 193.153 58.7574C193.192 58.8639 193.262 58.9534 193.364 59.026C193.46 59.0987 193.601 59.1543 193.785 59.193C193.969 59.2318 194.213 59.2511 194.518 59.2511C194.663 59.2511 194.825 59.2463 195.005 59.2366C195.188 59.2221 195.375 59.2051 195.564 59.1858C195.757 59.1616 195.946 59.135 196.13 59.1059C196.319 59.072 196.493 59.0309 196.653 58.9825V60.3548C196.493 60.3887 196.319 60.4202 196.13 60.4492C195.946 60.4734 195.755 60.4976 195.556 60.5218C195.358 60.5412 195.162 60.5557 194.968 60.5654C194.77 60.5751 194.586 60.5799 194.416 60.5799ZM194.511 56.7824C194.264 56.7824 194.058 56.7969 193.894 56.826C193.729 56.8502 193.596 56.8913 193.494 56.9494C193.393 57.0026 193.313 57.0704 193.255 57.1527C193.201 57.2302 193.163 57.3197 193.138 57.4214C193.313 57.4698 193.504 57.5061 193.712 57.5303C193.915 57.5496 194.15 57.5593 194.416 57.5593C194.687 57.5593 194.898 57.5496 195.048 57.5303C195.203 57.5061 195.317 57.477 195.389 57.4431C195.462 57.4141 195.508 57.3778 195.527 57.3342C195.542 57.2955 195.549 57.2544 195.549 57.2108C195.549 57.1721 195.542 57.1261 195.527 57.0728C195.513 57.0196 195.472 56.9712 195.404 56.9276C195.331 56.8841 195.225 56.8502 195.084 56.826C194.944 56.7969 194.753 56.7824 194.511 56.7824Z" fill="#545454"/>
<path d="M202.193 55.8239H203.66V60.3983H202.193V57.5811L199.623 60.3983H198.163V55.8239H199.623V58.6412L202.193 55.8239ZM201.452 53.9506H202.28V54.1466C202.28 54.287 202.258 54.4225 202.215 54.5532C202.176 54.6791 202.106 54.7904 202.004 54.8872C201.907 54.984 201.772 55.0615 201.598 55.1196C201.423 55.1728 201.205 55.1995 200.944 55.1995H200.871C200.605 55.1995 200.385 55.1728 200.211 55.1196C200.041 55.0615 199.906 54.984 199.804 54.8872C199.702 54.7904 199.632 54.6791 199.594 54.5532C199.555 54.4225 199.535 54.287 199.535 54.1466V53.9506H200.356V54.1466C200.356 54.2337 200.39 54.3088 200.458 54.3717C200.53 54.4346 200.668 54.4661 200.871 54.4661H200.944C201.143 54.4661 201.278 54.4346 201.351 54.3717C201.418 54.3088 201.452 54.2337 201.452 54.1466V53.9506Z" fill="#545454"/>
<path d="M204.8 58.2927V57.9296C204.8 57.6102 204.841 57.3125 204.923 57.0365C205 56.7558 205.141 56.5137 205.344 56.3104C205.543 56.1023 205.811 55.9377 206.15 55.8167C206.484 55.7005 206.908 55.6424 207.421 55.6424H207.675C208.004 55.6424 208.326 55.6618 208.641 55.7005C208.955 55.7392 209.263 55.7949 209.563 55.8675V57.2326C209.219 57.1358 208.875 57.068 208.532 57.0293C208.193 56.9857 207.895 56.9639 207.639 56.9639C207.295 56.9639 207.031 56.993 206.847 57.0511C206.658 57.1091 206.523 57.189 206.441 57.2907C206.353 57.3923 206.303 57.5133 206.288 57.6537C206.274 57.7941 206.266 57.9466 206.266 58.1112C206.266 58.2757 206.274 58.4282 206.288 58.5686C206.303 58.709 206.353 58.83 206.441 58.9317C206.523 59.0285 206.658 59.1059 206.847 59.164C207.031 59.2221 207.295 59.2511 207.639 59.2511C207.895 59.2511 208.193 59.2318 208.532 59.193C208.875 59.1543 209.219 59.0866 209.563 58.9897V60.3548C209.263 60.4274 208.955 60.4831 208.641 60.5218C208.326 60.5605 208.004 60.5799 207.675 60.5799H207.421C206.908 60.5799 206.484 60.5194 206.15 60.3984C205.811 60.2822 205.543 60.12 205.344 59.9119C205.141 59.7037 205 59.4617 204.923 59.1858C204.841 58.9099 204.8 58.6122 204.8 58.2927Z" fill="#545454"/>
<path d="M213.687 60.3984H212.22V57.1527H210.485V55.8239H215.43V57.1527H213.687V60.3984Z" fill="#545454"/>
<path d="M216.214 60.3982V55.8238C216.63 55.7754 217.071 55.7391 217.535 55.7149C217.995 55.6907 218.448 55.6786 218.893 55.6786H219.089C219.501 55.6786 219.84 55.7101 220.106 55.773C220.377 55.8359 220.592 55.923 220.752 56.0344C220.917 56.1409 221.03 56.2691 221.093 56.4192C221.156 56.5644 221.188 56.7193 221.188 56.8839V57.0291C221.188 57.2615 221.122 57.4696 220.992 57.6536C220.861 57.8424 220.624 57.9827 220.28 58.0747C220.677 58.1715 220.953 58.3216 221.108 58.5249C221.258 58.7234 221.333 58.9436 221.333 59.1856V59.3381C221.333 59.5027 221.299 59.6576 221.231 59.8028C221.159 59.948 221.04 60.0763 220.875 60.1877C220.706 60.299 220.476 60.3861 220.186 60.4491C219.895 60.512 219.53 60.5434 219.089 60.5434H218.893C218.448 60.5434 217.995 60.5313 217.535 60.5071C217.071 60.4829 216.63 60.4466 216.214 60.3982ZM218.828 58.6048H217.673V59.3091C217.891 59.3333 218.116 59.3502 218.349 59.3599C218.576 59.3696 218.772 59.3744 218.937 59.3744C219.164 59.3744 219.341 59.3623 219.467 59.3381C219.597 59.3188 219.692 59.2921 219.75 59.2583C219.813 59.2244 219.852 59.1856 219.866 59.1421C219.881 59.0985 219.888 59.0525 219.888 59.0041C219.888 58.9509 219.883 58.9 219.873 58.8516C219.859 58.8032 219.82 58.7597 219.757 58.7209C219.694 58.6871 219.588 58.658 219.438 58.6338C219.293 58.6144 219.089 58.6048 218.828 58.6048ZM218.915 56.8476C218.76 56.8476 218.566 56.85 218.334 56.8549C218.107 56.8597 217.886 56.8791 217.673 56.913V57.6173H218.828C219.055 57.6173 219.23 57.6052 219.351 57.581C219.476 57.5616 219.568 57.5326 219.627 57.4938C219.685 57.4599 219.719 57.4188 219.728 57.3704C219.738 57.322 219.743 57.2687 219.743 57.2107C219.743 57.1622 219.735 57.1163 219.721 57.0727C219.711 57.034 219.68 56.9977 219.627 56.9638C219.568 56.9299 219.484 56.9009 219.372 56.8767C219.266 56.8573 219.113 56.8476 218.915 56.8476Z" fill="#545454"/>
<path d="M226.51 55.8239H227.977V60.3984H226.51V57.5811L223.939 60.3984H222.48V55.8239H223.939V58.6412L226.51 55.8239Z" fill="#545454"/>
<path d="M233.197 55.8239H234.664V60.3984H233.197V57.5811L230.627 60.3984H229.167V55.8239H230.627V58.6412L233.197 55.8239Z" fill="#545454"/>
<path d="M241.682 24.3626C239.025 24.3626 236.863 26.5243 236.842 29.17C236.831 30.4606 237.326 31.6867 238.24 32.6009C239.144 33.5258 240.359 34.0313 241.649 34.042H241.682C244.338 34.042 246.5 31.8803 246.521 29.2346C246.543 26.5674 244.381 24.3841 241.682 24.3626ZM241.682 33.386H241.649C240.531 33.3752 239.488 32.9343 238.692 32.1384C237.917 31.3533 237.487 30.2993 237.498 29.1808C237.509 26.89 239.391 25.0187 241.714 25.0187C244.026 25.0294 245.887 26.9223 245.876 29.2346C245.855 31.5254 243.972 33.386 241.682 33.386Z" fill="#545454"/>
<path d="M243.693 28.3632C243.693 27.4706 242.961 26.7393 242.069 26.7393H240.391C240.219 26.7393 240.079 26.8791 240.079 27.0511V31.4822C240.079 31.6542 240.219 31.7941 240.391 31.7941C240.563 31.7941 240.703 31.6542 240.703 31.4822V27.363H242.069C242.617 27.363 243.069 27.8147 243.069 28.3632C243.069 28.9117 242.617 29.3635 242.069 29.3635H241.682C241.553 29.3635 241.445 29.4387 241.391 29.5463C241.337 29.6646 241.359 29.7936 241.445 29.8797L243.08 31.6435C243.198 31.7726 243.392 31.7726 243.521 31.665C243.65 31.5467 243.65 31.3531 243.542 31.2241L242.37 29.955C243.123 29.8152 243.693 29.1591 243.693 28.3632Z" fill="#545454"/>
</svg>
