<svg width="35" height="49" viewBox="0 0 35 49" fill="none" xmlns="http://www.w3.org/2000/svg">
<path d="M17.5 45L16.7261 45.6333L17.5 46.5789L18.2739 45.6333L17.5 45ZM17.5 45C18.2739 45.6333 18.274 45.6332 18.2742 45.6329L18.2749 45.6321L18.2773 45.6292L18.2862 45.6182L18.3206 45.576C18.3507 45.5389 18.395 45.4843 18.4526 45.4129C18.5677 45.2701 18.7359 45.0603 18.9496 44.7907C19.377 44.2516 19.9866 43.4731 20.7176 42.5126C22.179 40.5924 24.1294 37.94 26.0817 35.0154C28.0317 32.0942 29.9962 28.8826 31.4769 25.8467C32.9403 22.8462 34 19.8825 34 17.5C34 8.3873 26.6127 1 17.5 1C8.3873 1 1 8.3873 1 17.5C1 19.8825 2.05966 22.8462 3.52308 25.8467C5.00379 28.8826 6.96833 32.0942 8.91828 35.0154C10.8706 37.94 12.821 40.5924 14.2824 42.5126C15.0134 43.4731 15.623 44.2516 16.0504 44.7907C16.2641 45.0603 16.4323 45.2701 16.5474 45.4129C16.605 45.4843 16.6493 45.5389 16.6794 45.576L16.7138 45.6182L16.7227 45.6292L16.7251 45.6321L16.7258 45.6329C16.726 45.6332 16.7261 45.6333 17.5 45Z" fill="white" stroke="#545454" stroke-width="2"/>
<path opacity="0.83" d="M19.3102 17.2792L19.3104 17.2793C19.7054 17.5368 19.6852 18.1576 19.2729 18.3865L12.1535 22.336C12.1532 22.3361 12.1529 22.3363 12.1527 22.3364C11.7663 22.5448 11.283 22.2632 11.283 21.7713V13.1679C11.283 12.6583 11.8004 12.3767 12.1896 12.6266C12.1898 12.6267 12.1899 12.6268 12.1901 12.6269L19.3102 17.2792Z" fill="#74CEB7" stroke="#545454" stroke-width="0.359861"/>
<path opacity="0.83" d="M23.9706 20.2827L23.9709 20.2829C24.4283 20.5809 24.4041 21.2933 23.9286 21.558C23.9286 21.5581 23.9285 21.5581 23.9284 21.5581L15.9579 25.9812C15.9577 25.9813 15.9575 25.9814 15.9573 25.9815C15.5093 26.2246 14.9524 25.8944 14.9524 25.3298V15.6981C14.9524 15.1058 15.5527 14.7805 15.9989 15.0699C15.999 15.07 15.999 15.07 15.9991 15.0701L23.9706 20.2827Z" fill="#A6A6A6" stroke="#545454" stroke-width="0.359861"/>
<path opacity="0.83" d="M23.9707 14.4996L23.9709 14.4998C24.4283 14.7978 24.4041 15.5101 23.9286 15.7749C23.9286 15.7749 23.9285 15.775 23.9284 15.775L15.9579 20.1981C15.9577 20.1982 15.9575 20.1983 15.9573 20.1984C15.5093 20.4415 14.9524 20.1113 14.9524 19.5467V9.91494C14.9524 9.32232 15.5525 8.99812 15.9982 9.29145L15.9987 9.29178L23.9707 14.4996Z" fill="#FF5757" stroke="#545454" stroke-width="0.359861"/>
</svg>
