   <svg width="60" height="69" viewBox="0 0 60 69" fill="none" xmlns="http://www.w3.org/2000/svg">
<path d="M13.0331 10V3H14.3731L17.3531 7.94H16.6431L19.5731 3H20.9131L20.9231 10H19.4031L19.3931 5.33H19.6831L17.3331 9.26H16.6131L14.2131 5.33H14.5531V10H13.0331ZM24.152 5.82H27.522V7.08H24.152V5.82ZM24.272 8.7H28.082V10H22.662V3H27.952V4.3H24.272V8.7ZM34.1905 3H35.8105V10H34.1905V3ZM31.0105 10H29.3905V3H31.0105V10ZM34.3105 7.13H30.8905V5.76H34.3105V7.13ZM37.5643 10V3H39.1743V5.75H40.9843V7.15H39.1743V10H37.5643ZM43.7443 10.12C43.211 10.12 42.7177 10.03 42.2643 9.85C41.8177 9.67 41.4277 9.42 41.0943 9.1C40.761 8.77333 40.501 8.39 40.3143 7.95C40.1343 7.50333 40.0443 7.02 40.0443 6.5C40.0443 5.97333 40.1343 5.49 40.3143 5.05C40.501 4.61 40.761 4.23 41.0943 3.91C41.4277 3.58333 41.8177 3.33 42.2643 3.15C42.7177 2.97 43.211 2.88 43.7443 2.88C44.271 2.88 44.761 2.97 45.2143 3.15C45.6677 3.33 46.0577 3.58333 46.3843 3.91C46.7177 4.23 46.9777 4.61333 47.1643 5.06C47.351 5.5 47.4443 5.98 47.4443 6.5C47.4443 7.02 47.351 7.50333 47.1643 7.95C46.9777 8.39 46.7177 8.77333 46.3843 9.1C46.0577 9.42 45.6677 9.67 45.2143 9.85C44.761 10.03 44.271 10.12 43.7443 10.12ZM43.7443 8.74C44.0377 8.74 44.3077 8.68667 44.5543 8.58C44.801 8.47333 45.0177 8.32333 45.2043 8.13C45.391 7.93 45.5377 7.69333 45.6443 7.42C45.751 7.14667 45.8043 6.84 45.8043 6.5C45.8043 6.16 45.751 5.85333 45.6443 5.58C45.5377 5.30667 45.391 5.07333 45.2043 4.88C45.0177 4.68 44.801 4.52667 44.5543 4.42C44.3077 4.31333 44.0377 4.26 43.7443 4.26C43.4577 4.26 43.1877 4.31333 42.9343 4.42C42.6877 4.52667 42.471 4.68 42.2843 4.88C42.0977 5.07333 41.951 5.30667 41.8443 5.58C41.7377 5.85333 41.6843 6.16 41.6843 6.5C41.6843 6.84 41.7377 7.14667 41.8443 7.42C41.951 7.69333 42.0977 7.93 42.2843 8.13C42.471 8.32333 42.6877 8.47333 42.9343 8.58C43.1877 8.68667 43.4577 8.74 43.7443 8.74Z" fill="#545454"/>
<rect width="60" height="51" transform="translate(0 18)" fill="#EFF5F3"/>
<path fill-rule="evenodd" clip-rule="evenodd" d="M15 36.5C15 35.6716 15.6716 35 16.5 35H43.5C44.3284 35 45 35.6716 45 36.5C45 37.3284 44.3284 38 43.5 38H16.5C15.6716 38 15 37.3284 15 36.5ZM15 43.5C15 42.6716 15.6716 42 16.5 42H43.5C44.3284 42 45 42.6716 45 43.5C45 44.3284 44.3284 45 43.5 45H16.5C15.6716 45 15 44.3284 15 43.5ZM16.5 49C15.6716 49 15 49.6716 15 50.5C15 51.3284 15.6716 52 16.5 52H43.5C44.3284 52 45 51.3284 45 50.5C45 49.6716 44.3284 49 43.5 49H16.5Z" fill="#74CEB7"/>
</svg>
